<svg width="1440" height="750" viewBox="0 0 1440 750" fill="none" xmlns="http://www.w3.org/2000/svg">
<g clip-path="url(#clip0_1113_6279)">
<path opacity="0.54" d="M107.245 976.152C71.3226 930.771 89.2701 861.129 131.567 821.919C135.343 818.408 139.282 815.11 143.331 811.997C184.698 780.209 238.596 767.494 291.152 759.779C301.275 758.29 311.453 756.96 321.63 755.656C369.454 749.538 417.879 743.766 462.392 725.384C476.811 719.452 490.408 712.35 503.267 704.183C590.132 648.8 638.393 546.013 672.728 448.627C675.218 441.551 677.708 434.449 680.17 427.32C716.804 322.006 758.8 217.863 835.022 147.078C861.04 122.924 887.798 98.7435 924.595 86.0814C968.315 70.972 1018.55 73.2065 1064.04 78.9257C1095.07 82.8094 1125.16 88.1562 1155.48 90.6301C1169.73 91.774 1184.04 92.2794 1198.54 91.8006C1290.88 88.7149 1384.36 42.6951 1451.97 -24.5257C1519.65 -91.853 1564 -178.227 1588.33 -269.202" stroke="url(#paint0_linear_1113_6279)" stroke-width="2.37175" stroke-miterlimit="10"/>
<path opacity="0.54" d="M113.786 990.357C77.8362 945.029 95.3187 875.573 137.096 835.964C140.844 832.427 144.729 829.075 148.723 825.936C189.68 793.775 243.276 780.448 295.669 772.149C305.764 770.553 315.914 769.116 326.065 767.706C373.724 761.083 422.013 754.884 466.389 736.29C480.752 730.279 494.323 723.149 507.127 714.93C593.8 659.227 641.651 556.467 675.193 458.895C677.628 451.819 680.036 444.69 682.443 437.561C718.065 332.114 758.611 228.051 831.714 155.324C857.377 129.787 883.669 103.771 921.151 90.2308C965.691 74.0573 1017.4 76.9036 1063.83 83.8199C1095.48 88.5283 1126.07 94.8859 1157.01 98.2909C1171.54 99.8869 1186.18 100.791 1201.03 100.658C1295.59 99.8072 1392.16 52.9627 1461.19 -16.1468C1530.3 -85.3361 1574.76 -174.37 1599.08 -267.713" stroke="url(#paint1_linear_1113_6279)" stroke-width="2.37175" stroke-miterlimit="10"/>
<path opacity="0.54" d="M120.318 1004.56C84.368 959.315 101.331 889.993 142.615 850.038C146.309 846.473 150.139 843.095 154.133 839.903C194.707 807.343 247.975 793.404 300.203 784.52C310.244 782.817 320.367 781.274 330.49 779.758C377.985 772.656 426.164 765.979 470.376 747.198C484.685 741.133 498.2 733.951 510.977 725.678C597.459 669.656 644.899 566.923 677.621 469.164C680.001 462.062 682.354 454.933 684.679 447.804C719.289 342.224 758.33 238.134 828.369 163.545C853.676 136.598 879.503 108.8 917.669 94.3821C963.03 77.1446 1016.22 80.6294 1063.55 88.7427C1095.83 94.2491 1126.91 101.644 1158.46 105.98C1173.28 108.002 1188.19 109.332 1203.41 109.545C1300.18 110.901 1399.84 63.2323 1470.29 -7.76594C1540.83 -78.8439 1585.37 -170.511 1609.72 -266.222" stroke="url(#paint2_linear_1113_6279)" stroke-width="2.37175" stroke-miterlimit="10"/>
<path opacity="0.54" d="M126.832 1018.77C90.8551 973.573 107.325 904.437 148.145 864.083C151.784 860.466 155.586 857.061 159.526 853.842C199.689 820.883 252.656 806.359 304.693 796.889C314.707 795.08 324.802 793.404 334.87 791.782C382.201 784.174 430.271 777.071 474.346 758.078C488.6 751.933 502.088 744.724 514.838 736.398C601.128 680.031 648.131 577.324 680.059 479.406C682.384 472.303 684.655 465.148 686.926 457.992C720.523 352.279 757.977 248.11 825.034 171.738C849.958 143.355 875.347 113.774 914.17 98.4787C960.352 80.2038 1015.02 84.3004 1063.25 93.5841C1096.13 99.8886 1127.73 108.321 1159.88 113.588C1174.98 116.062 1190.22 117.791 1205.79 118.35C1304.77 121.914 1407.53 73.4205 1479.41 0.560269C1551.36 -72.3798 1595.98 -166.707 1620.36 -264.785" stroke="url(#paint3_linear_1113_6279)" stroke-width="2.37175" stroke-miterlimit="10"/>
<path opacity="0.54" d="M133.375 1033C97.3981 987.883 113.376 918.907 153.676 878.154C157.287 874.51 161.035 871.052 164.948 867.78C204.7 834.422 257.366 819.286 309.239 809.231C319.225 807.289 329.266 805.533 339.306 803.804C386.473 795.691 434.406 788.163 478.345 768.957C492.544 762.759 506.005 755.47 518.7 747.117C604.798 690.431 651.391 587.751 682.498 489.646C684.769 482.517 686.985 475.361 689.174 468.205C721.758 362.333 757.544 258.004 821.701 179.93C846.242 150.084 871.22 118.774 910.7 102.601C957.702 83.2618 1013.84 87.9968 1063.01 98.451C1096.52 105.553 1128.64 115.05 1161.39 121.221C1176.79 124.121 1192.33 126.276 1208.23 127.18C1309.43 132.979 1415.28 83.6608 1488.58 8.91184C1561.95 -65.9169 1606.66 -162.878 1631.03 -263.323" stroke="url(#paint4_linear_1113_6279)" stroke-width="2.37175" stroke-miterlimit="10"/>
<path opacity="0.54" d="M139.912 1047.2C103.908 1002.14 119.393 933.351 159.228 892.199C162.784 888.528 166.505 885.043 170.363 881.718C209.732 847.988 262.07 832.24 313.779 821.6C323.737 819.551 333.724 817.663 343.737 815.854C390.74 807.235 438.563 799.255 482.338 779.863C496.482 773.611 509.888 766.27 522.555 757.864C608.435 700.858 654.645 598.178 684.931 499.913C687.12 492.784 689.281 485.602 691.415 478.446C722.988 372.441 757.05 267.899 818.388 188.176C842.492 156.84 867.087 123.801 907.25 106.75C955.074 86.3468 1012.69 91.7203 1062.76 103.372C1096.88 111.299 1129.52 121.806 1162.87 128.909C1178.54 132.234 1194.38 134.787 1210.63 136.064C1314.05 144.071 1423 93.9282 1497.71 17.3172C1572.51 -59.3737 1617.3 -158.995 1641.7 -261.808" stroke="url(#paint5_linear_1113_6279)" stroke-width="2.37175" stroke-miterlimit="10"/>
<path opacity="0.54" d="M146.419 1061.41C110.415 1016.43 125.38 947.795 164.723 906.27C168.225 902.573 171.918 899.035 175.721 895.683C214.68 861.554 266.717 845.194 318.261 833.969C328.165 831.814 338.151 829.819 348.137 827.877C395.003 818.78 442.69 810.347 486.3 790.742C500.39 784.411 513.769 777.043 526.409 768.61C612.097 711.285 657.896 608.631 687.389 510.181C689.523 503.025 691.63 495.843 693.682 488.687C724.242 382.549 756.525 277.714 815.074 196.395C838.739 163.543 862.952 128.828 903.772 110.899C952.416 89.4587 1011.48 95.444 1062.48 108.266C1097.23 116.991 1130.36 128.536 1164.34 136.569C1180.29 140.347 1196.46 143.299 1213.07 144.922C1318.7 155.137 1430.73 104.196 1506.87 25.6961C1583.1 -52.8834 1627.96 -155.138 1652.4 -260.318" stroke="url(#paint6_linear_1113_6279)" stroke-width="2.37175" stroke-miterlimit="10"/>
<path opacity="0.54" d="M152.958 1075.61C116.926 1030.68 131.426 962.24 170.249 920.317C173.723 916.566 177.362 913.001 181.138 909.623C219.714 875.095 271.422 858.15 322.775 846.313C332.652 844.052 342.583 841.95 352.542 839.902C399.244 830.299 446.794 821.441 490.267 801.623C504.302 795.239 517.626 787.817 530.239 779.331C615.736 721.66 661.124 619.033 689.796 520.423C691.876 513.268 693.9 506.085 695.897 498.876C725.445 392.605 755.841 287.425 811.708 204.589C834.881 170.221 858.766 133.804 900.269 114.997C949.734 92.4924 1010.28 99.116 1062.18 113.108C1097.53 122.631 1131.18 135.214 1165.76 144.178C1182.01 148.381 1198.46 151.759 1215.42 153.728C1323.27 166.177 1438.39 114.385 1515.96 34.0233C1593.6 -46.4183 1638.55 -151.333 1663.01 -258.881" stroke="url(#paint7_linear_1113_6279)" stroke-width="2.37175" stroke-miterlimit="10"/>
<path opacity="0.54" d="M159.494 1089.84C123.463 1045 137.443 976.684 175.8 934.388C179.22 930.611 182.804 927.02 186.552 923.588C224.718 888.661 276.126 871.131 327.315 858.708C337.164 856.314 347.068 854.107 356.972 851.952C403.509 841.843 450.95 832.533 494.259 812.529C508.24 806.065 521.536 798.617 534.094 790.078C619.399 732.088 664.378 629.487 692.229 530.691C694.254 523.509 696.223 516.326 698.139 509.118C726.674 402.713 755.155 297.187 808.368 212.808C831.021 176.897 854.632 138.831 896.792 119.146C947.078 95.5777 1009.1 102.84 1061.93 118.002C1097.91 128.324 1132.05 141.97 1167.24 151.839C1183.76 156.494 1200.53 160.271 1217.82 162.586C1327.89 177.243 1446.11 124.653 1525.09 42.4022C1604.16 -39.9281 1649.19 -147.476 1673.68 -257.392" stroke="url(#paint8_linear_1113_6279)" stroke-width="2.37175" stroke-miterlimit="10"/>
<path opacity="0.54" d="M166.037 1104.05C130.005 1059.25 143.465 991.13 181.33 948.461C184.723 944.658 188.252 941.013 191.973 937.555C229.728 902.255 280.835 884.087 331.86 871.079C341.682 868.579 351.531 866.264 361.407 864.003C407.781 853.389 455.112 843.653 498.257 823.437C512.183 816.919 525.452 809.418 537.982 800.826C623.096 742.516 667.664 639.943 694.695 540.96C696.665 533.778 698.552 526.569 700.413 519.36C727.936 412.823 754.392 306.924 805.061 221.056C827.167 183.575 850.504 143.86 893.321 123.324C944.428 98.7177 1007.93 106.592 1061.66 122.951C1098.24 134.07 1132.9 148.754 1168.72 159.554C1185.54 164.635 1202.61 168.838 1220.26 171.498C1332.54 188.39 1453.85 134.948 1534.26 50.8358C1614.75 -33.3565 1659.87 -143.565 1684.35 -255.848" stroke="url(#paint9_linear_1113_6279)" stroke-width="2.37175" stroke-miterlimit="10"/>
<path opacity="0.54" d="M172.55 1118.25C136.491 1073.54 149.486 1005.57 186.858 962.506C190.196 958.649 193.698 954.978 197.364 951.493C234.737 915.794 285.515 897.041 336.375 883.447C346.143 880.841 355.992 878.393 365.814 876.052C412.023 864.933 459.217 854.771 502.253 834.342C516.124 827.771 529.339 820.19 541.842 811.571C626.737 752.916 670.921 650.369 697.131 551.227C699.047 544.018 700.88 536.809 702.658 529.6C729.169 422.93 753.573 316.606 801.725 229.274C823.256 190.224 846.347 148.886 889.848 127.446C941.776 101.776 1006.75 110.261 1061.39 127.818C1098.6 139.762 1133.78 155.457 1170.17 167.214C1187.27 172.721 1204.64 177.349 1222.64 180.355C1337.17 199.455 1461.54 145.215 1543.37 59.1874C1625.29 -26.867 1670.48 -139.735 1695 -254.386" stroke="url(#paint10_linear_1113_6279)" stroke-width="2.37175" stroke-miterlimit="10"/>
<path opacity="0.54" d="M179.089 1132.46C143.029 1087.8 155.505 1020.02 192.385 976.551C195.668 972.667 199.143 968.97 202.754 965.432C239.716 929.334 290.194 909.969 340.89 895.79C350.63 893.077 360.424 890.523 370.246 888.049C416.291 876.451 463.376 865.811 506.248 845.169C520.064 838.518 533.251 830.91 545.699 822.265C630.403 763.291 674.15 660.77 699.594 561.442C701.427 554.233 703.233 546.997 704.956 539.762C730.455 432.959 752.725 326.235 798.442 237.441C819.344 196.821 842.244 153.834 886.429 131.542C939.177 104.808 1005.63 113.932 1061.17 132.66C1099.01 145.401 1134.68 162.133 1171.67 174.822C1189.07 180.781 1206.75 185.808 1225.11 189.16C1341.85 210.468 1469.31 155.403 1552.57 67.5136C1635.9 -20.4295 1681.21 -135.931 1705.72 -252.949" stroke="url(#paint11_linear_1113_6279)" stroke-width="2.37175" stroke-miterlimit="10"/>
<path opacity="0.54" d="M185.632 1146.69C149.545 1102.11 161.528 1034.49 197.916 990.623C201.172 986.713 204.592 982.962 208.176 979.398C244.755 942.928 294.904 922.95 345.408 908.16C355.121 905.314 364.888 902.68 374.655 900.1C420.536 887.997 467.512 876.931 510.219 856.075C523.981 849.372 537.113 841.711 549.534 833.012C634.046 773.718 677.383 671.198 702.006 571.71C703.784 564.475 705.508 557.239 707.177 550.004C731.636 443.067 751.744 335.945 795.081 245.688C815.354 203.498 838.09 158.889 882.904 135.692C936.473 107.921 1004.4 117.657 1060.87 137.581C1099.31 151.121 1135.51 168.891 1173.13 182.51C1190.8 188.894 1208.8 194.348 1227.49 198.045C1346.45 221.587 1477 165.698 1561.68 75.9198C1646.44 -13.8853 1691.83 -132.074 1716.37 -251.433" stroke="url(#paint12_linear_1113_6279)" stroke-width="2.37175" stroke-miterlimit="10"/>
<path opacity="0.54" d="M192.169 1160.9C156.082 1116.37 167.573 1048.91 203.468 1004.7C206.669 1000.76 210.062 996.956 213.591 993.365C249.76 956.496 299.608 935.907 349.948 920.558C359.634 917.605 369.346 914.838 379.086 912.152C424.83 899.543 471.641 888.051 514.212 866.983C527.919 860.2 541.024 852.512 553.417 843.76C637.738 784.121 680.664 681.654 704.467 581.98C706.19 574.744 707.859 567.482 709.446 560.247C732.893 453.151 750.758 345.629 791.769 253.909C811.358 210.124 833.957 163.891 879.455 139.844C933.844 111.008 1003.25 121.383 1060.63 142.477C1099.69 156.815 1136.38 175.649 1174.6 190.173C1192.55 196.983 1210.85 202.862 1229.9 206.905C1351.07 232.655 1484.69 175.941 1570.82 84.3007C1657 -7.39312 1702.47 -128.215 1727.04 -249.941" stroke="url(#paint13_linear_1113_6279)" stroke-width="2.37175" stroke-miterlimit="10"/>
<path opacity="0.54" d="M198.678 1175.1C162.564 1130.65 173.562 1063.35 208.965 1018.74C212.139 1014.75 215.476 1010.95 218.951 1007.3C254.709 970.035 304.256 948.86 354.433 932.899C364.063 929.84 373.776 926.967 383.461 924.174C429.041 911.06 475.743 899.143 518.149 877.862C531.801 871.025 544.879 863.285 557.218 854.48C641.347 794.521 683.863 692.054 706.844 592.22C708.513 584.958 710.1 577.696 711.632 570.46C734.067 463.231 749.607 355.311 788.374 262.128C807.252 216.773 829.741 168.917 875.923 143.966C931.161 114.066 1002.02 125.079 1060.3 147.344C1099.97 162.507 1137.17 182.351 1176.02 197.806C1194.27 205.068 1212.88 211.346 1232.27 215.735C1355.66 243.693 1492.38 186.182 1579.93 92.6523C1667.53 -0.903608 1713.08 -124.386 1737.65 -248.479" stroke="url(#paint14_linear_1113_6279)" stroke-width="2.37175" stroke-miterlimit="10"/>
<path opacity="0.54" d="M205.217 1189.31C169.103 1144.91 179.582 1077.79 214.519 1032.79C217.638 1028.77 220.921 1024.91 224.396 1021.24C259.771 983.573 308.99 961.787 359.002 945.268C368.605 942.102 378.263 939.096 387.921 936.223C433.337 922.63 479.929 910.234 522.171 888.767C535.769 881.851 548.792 874.083 561.103 865.225C645.013 804.947 687.146 702.507 709.307 602.487C710.921 595.225 712.453 587.936 713.903 580.674C735.325 473.312 748.54 365.019 785.064 270.319C803.176 223.369 825.61 173.891 872.449 148.088C928.507 117.151 1000.84 128.775 1060.05 152.211C1100.35 168.171 1138.05 189.053 1177.5 205.44C1196.02 213.127 1214.93 219.804 1234.68 224.566C1360.29 254.758 1500.09 196.395 1589.06 101.004C1678.06 5.55931 1723.72 -120.556 1748.32 -247.018" stroke="url(#paint15_linear_1113_6279)" stroke-width="2.37175" stroke-miterlimit="10"/>
<path opacity="0.54" d="M211.754 1203.54C175.613 1159.22 185.626 1092.27 220.044 1046.89C223.108 1042.84 226.364 1038.93 229.784 1035.23C264.748 997.194 313.666 974.796 363.487 957.665C373.063 954.393 382.693 951.281 392.324 948.275C437.575 934.177 484.031 921.355 526.136 899.675C539.679 892.706 552.675 884.885 564.959 875.974C648.677 815.35 690.4 712.962 711.74 612.756C713.299 605.467 714.749 598.179 716.145 590.917C736.555 483.422 747.361 374.757 781.752 278.567C799.097 230.047 821.504 178.92 869 152.239C925.879 120.238 999.694 132.501 1059.8 157.133C1100.7 173.892 1138.92 195.811 1178.98 213.129C1197.8 221.269 1217.01 228.344 1237.12 233.452C1364.94 265.852 1507.83 206.691 1598.23 109.411C1688.65 12.1045 1734.39 -116.671 1759.02 -245.5" stroke="url(#paint16_linear_1113_6279)" stroke-width="2.37175" stroke-miterlimit="10"/>
<path opacity="0.54" d="M218.295 1217.74C182.154 1173.48 191.647 1106.71 225.6 1060.93C228.637 1056.83 231.837 1052.92 235.23 1049.15C269.812 1010.71 318.401 987.698 368.058 969.982C377.579 966.577 387.182 963.385 396.785 960.272C441.873 945.668 488.219 932.421 530.188 910.528C543.676 903.506 556.616 895.605 568.873 886.694C652.4 825.751 693.712 723.363 714.259 622.998C715.764 615.709 717.159 608.42 718.472 601.132C737.87 493.504 746.242 384.493 778.498 286.76C795.023 236.644 817.43 183.921 865.609 156.362C923.309 123.297 998.601 136.198 1059.61 162.001C1101.14 179.558 1139.88 202.541 1180.54 220.763C1199.64 229.329 1219.17 236.83 1239.61 242.283C1369.64 276.918 1515.63 216.906 1607.48 117.737C1699.32 18.5687 1745.15 -112.867 1769.8 -244.063" stroke="url(#paint17_linear_1113_6279)" stroke-width="2.37175" stroke-miterlimit="10"/>
<path opacity="0.54" d="M224.806 1231.95C188.637 1187.76 197.666 1121.13 231.099 1074.97C234.081 1070.85 237.254 1066.89 240.592 1063.08C274.764 1024.25 323.052 1000.65 372.545 982.35C382.038 978.839 391.614 975.513 401.162 972.321C446.086 957.212 492.323 943.512 534.127 921.433C547.56 914.331 560.474 906.404 572.676 897.439C656.011 836.177 696.913 733.816 716.639 633.264C718.062 625.949 719.402 618.66 720.661 611.345C739.046 503.584 744.956 394.254 775.105 294.979C790.809 243.293 813.216 188.921 862.052 160.484C920.573 126.382 997.343 139.895 1059.26 166.868C1101.39 185.223 1140.65 209.244 1181.91 228.397C1201.28 237.388 1221.11 245.315 1241.9 251.114C1374.16 287.956 1523.24 227.12 1616.5 126.089C1709.77 25.0316 1755.68 -109.038 1780.36 -242.602" stroke="url(#paint18_linear_1113_6279)" stroke-width="2.37175" stroke-miterlimit="10"/>
<path opacity="0.54" d="M231.348 1246.15C195.179 1202.02 203.688 1135.57 236.628 1089.02C239.583 1084.87 242.702 1080.85 245.985 1077.02C279.773 1037.81 327.733 1013.61 377.062 994.693C386.528 991.075 396.049 987.643 405.57 984.318C450.329 968.703 496.429 954.578 538.097 932.287C551.475 925.131 564.362 917.15 576.536 908.133C659.68 846.551 700.144 744.191 719.077 643.479C720.445 636.164 721.731 628.848 722.907 621.533C740.28 513.639 743.672 404.016 771.77 303.145C786.599 249.89 809.088 193.895 858.58 164.58C917.922 129.414 996.169 143.539 1059.01 171.736C1101.77 190.915 1141.53 215.947 1183.41 236.031C1203.09 245.474 1223.22 253.8 1244.37 259.945C1378.84 298.995 1531.01 237.361 1625.7 134.441C1720.39 31.522 1766.38 -105.207 1791.08 -241.139" stroke="url(#paint19_linear_1113_6279)" stroke-width="2.37175" stroke-miterlimit="10"/>
<path opacity="0.54" d="M237.883 1260.38C201.687 1216.33 209.704 1150.04 242.179 1103.12C245.079 1098.94 248.17 1094.9 251.426 1091.01C284.804 1051.41 332.464 1026.59 381.628 1007.12C391.067 1003.39 400.56 999.827 410.026 996.422C454.649 980.328 500.612 965.751 542.116 943.246C555.439 936.011 568.271 928.004 580.418 918.933C663.343 857.006 703.424 754.698 721.536 653.8C722.849 646.458 724.053 639.143 725.175 631.828C741.535 523.801 742.384 413.912 768.457 311.445C782.41 256.62 804.954 198.976 855.13 168.784C915.293 132.553 995.017 147.316 1058.76 176.684C1102.15 196.661 1142.4 222.73 1184.89 243.745C1204.83 253.614 1225.3 262.366 1246.77 268.857C1383.46 310.141 1538.72 247.656 1634.83 142.874C1730.95 38.066 1777.02 -101.297 1801.72 -239.596" stroke="url(#paint20_linear_1113_6279)" stroke-width="2.37175" stroke-miterlimit="10"/>
<path opacity="0.54" d="M244.395 1274.59C208.199 1230.59 215.723 1164.49 247.678 1117.16C250.523 1112.94 253.588 1108.87 256.789 1104.95C289.756 1064.95 337.115 1039.54 386.087 1019.46C395.471 1015.6 404.938 1011.96 414.404 1008.42C458.862 991.821 504.716 976.791 546.055 954.1C559.325 946.812 572.129 938.752 584.221 929.627C666.955 867.381 706.625 765.073 723.916 664.016C725.175 656.674 726.324 649.332 727.364 642.017C742.712 533.857 740.988 423.729 765.064 319.612C778.087 263.245 800.74 203.951 851.574 172.881C912.557 135.613 993.758 150.988 1058.41 181.526C1102.4 202.302 1143.17 229.408 1186.26 251.381C1206.5 261.675 1227.24 270.853 1249.07 277.689C1387.97 321.182 1546.33 257.898 1643.86 151.228C1741.4 44.5575 1787.55 -97.4655 1812.29 -238.132" stroke="url(#paint21_linear_1113_6279)" stroke-width="2.37175" stroke-miterlimit="10"/>
<path opacity="0.54" d="M250.934 1288.8C214.738 1244.88 221.742 1178.93 253.233 1131.21C256.051 1126.95 259.033 1122.83 262.234 1118.89C294.818 1078.49 341.848 1052.47 390.657 1031.83C400.014 1027.87 409.452 1024.11 418.864 1020.47C463.158 1003.37 508.875 987.911 550.078 965.007C563.32 957.665 576.042 949.552 588.134 940.401C670.676 877.836 709.937 775.555 726.434 674.311C727.638 666.943 728.705 659.601 729.69 652.259C744.026 543.939 739.73 433.625 761.809 327.859C773.902 269.949 796.665 208.979 848.182 177.031C909.986 138.699 992.664 154.713 1058.22 186.421C1102.84 207.995 1144.1 236.165 1187.82 259.042C1208.34 269.789 1229.4 279.365 1251.59 286.548C1392.71 332.248 1554.15 268.14 1653.11 159.608C1752.07 51.0487 1798.33 -93.6078 1823.07 -236.642" stroke="url(#paint22_linear_1113_6279)" stroke-width="2.37175" stroke-miterlimit="10"/>
<path opacity="0.54" d="M257.475 1303C218.024 1255.22 229.268 1181.46 267.626 1132.83C305.983 1084.23 364.969 1055.74 423.271 1032.49C481.573 1009.24 542.447 988.948 591.994 951.121C680.309 883.661 718.612 770.899 731.908 662.473C745.232 554.021 738.31 443.52 758.446 336.078C769.582 276.625 792.508 214.006 844.682 181.18C907.307 141.784 991.463 158.437 1057.95 191.342C1124.43 224.247 1183.44 271.837 1253.97 295.432C1397.31 343.367 1561.84 278.434 1662.22 168.013C1762.6 57.5919 1808.95 -89.7247 1833.71 -235.126" stroke="url(#paint23_linear_1113_6279)" stroke-width="2.37175" stroke-miterlimit="10"/>
<path opacity="0.54" d="M1320.47 976.152C1356.39 930.771 1338.44 861.129 1296.14 821.919C1292.37 818.408 1288.43 815.11 1284.38 811.997C1243.01 780.209 1189.12 767.494 1136.56 759.779C1126.44 758.29 1116.26 756.96 1106.08 755.656C1058.26 749.538 1009.83 743.766 965.319 725.384C950.9 719.452 937.303 712.35 924.444 704.183C837.579 648.8 789.318 546.013 754.983 448.627C752.493 441.551 750.003 434.449 747.541 427.32C710.907 322.006 668.911 217.863 592.689 147.078C566.67 122.924 539.913 98.7435 503.116 86.0814C459.396 70.972 409.165 73.2065 363.667 78.9257C332.641 82.8094 302.547 88.1562 272.233 90.6301C257.979 91.774 243.67 92.2794 229.17 91.8006C136.833 88.7149 43.3473 42.6951 -24.2568 -24.5257C-91.943 -91.853 -136.292 -178.227 -160.614 -269.202" stroke="url(#paint24_linear_1113_6279)" stroke-width="2.37175" stroke-miterlimit="10"/>
<path opacity="0.54" d="M1313.92 990.357C1349.87 945.029 1332.39 875.573 1290.62 835.964C1286.87 832.427 1282.98 829.075 1278.99 825.936C1238.03 793.775 1184.43 780.448 1132.04 772.149C1121.95 770.553 1111.8 769.116 1101.65 767.706C1053.99 761.083 1005.7 754.884 961.322 736.29C946.959 730.279 933.388 723.149 920.584 714.93C833.911 659.227 786.06 556.467 752.518 458.895C750.083 451.819 747.675 444.69 745.268 437.561C709.646 332.114 669.1 228.051 595.997 155.324C570.334 129.787 544.042 103.771 506.56 90.2308C462.02 74.0573 410.311 76.9036 363.883 83.8199C332.229 88.5283 301.641 94.8859 270.698 98.2909C256.171 99.8869 241.534 100.791 226.678 100.658C132.125 99.8072 35.5476 52.9627 -33.4792 -16.1468C-102.588 -85.3361 -147.046 -174.37 -171.368 -267.713" stroke="url(#paint25_linear_1113_6279)" stroke-width="2.37175" stroke-miterlimit="10"/>
<path opacity="0.54" d="M1307.39 1004.56C1343.34 959.315 1326.38 889.993 1285.1 850.038C1281.4 846.473 1277.57 843.095 1273.58 839.903C1233 807.343 1179.74 793.404 1127.51 784.52C1117.47 782.817 1107.34 781.274 1097.22 779.758C1049.73 772.656 1001.55 765.979 957.335 747.198C943.026 741.133 929.511 733.951 916.734 725.678C830.252 669.656 782.811 566.923 750.09 469.164C747.71 462.062 745.357 454.933 743.032 447.804C708.422 342.224 669.381 238.134 599.342 163.545C574.035 136.598 548.208 108.8 510.042 94.3821C464.681 77.1446 411.495 80.6294 364.164 88.7427C331.88 94.2491 300.8 101.644 269.255 105.98C254.427 108.002 239.516 109.332 224.305 109.545C127.536 110.901 27.8669 63.2323 -42.5826 -7.76594C-113.114 -78.8439 -157.655 -170.511 -182.004 -266.222" stroke="url(#paint26_linear_1113_6279)" stroke-width="2.37175" stroke-miterlimit="10"/>
<path opacity="0.54" d="M1300.88 1018.77C1336.86 973.573 1320.39 904.437 1279.57 864.083C1275.93 860.466 1272.12 857.061 1268.18 853.842C1228.02 820.883 1175.05 806.359 1123.02 796.889C1113 795.08 1102.91 793.404 1092.84 791.782C1045.51 784.174 997.44 777.071 953.365 758.078C939.111 751.933 925.623 744.724 912.873 736.398C826.583 680.031 779.58 577.324 747.652 479.406C745.327 472.303 743.056 465.148 740.785 457.992C707.188 352.279 669.734 248.11 602.677 171.738C577.753 143.355 552.364 113.774 513.541 98.4787C467.359 80.2038 412.696 84.3004 364.462 93.5841C331.576 99.8886 299.977 108.321 267.83 113.588C252.728 116.062 237.489 117.791 221.921 118.35C122.936 121.914 20.176 73.4205 -51.6961 0.560269C-123.65 -72.3798 -168.273 -166.707 -192.65 -264.785" stroke="url(#paint27_linear_1113_6279)" stroke-width="2.37175" stroke-miterlimit="10"/>
<path opacity="0.54" d="M1294.34 1033C1330.31 987.883 1314.34 918.907 1274.04 878.154C1270.42 874.51 1266.68 871.052 1262.76 867.78C1223.01 834.422 1170.34 819.286 1118.47 809.231C1108.49 807.289 1098.45 805.533 1088.4 803.804C1041.24 795.691 993.304 788.163 949.366 768.957C935.167 762.759 921.706 755.47 909.011 747.117C822.913 690.431 776.32 587.751 745.213 489.646C742.942 482.517 740.726 475.361 738.537 468.205C705.953 362.333 670.167 258.004 606.01 179.93C581.469 150.084 556.49 118.774 517.011 102.601C470.009 83.2618 413.868 87.9968 364.704 98.451C331.189 105.553 299.07 115.05 266.321 121.221C250.918 124.121 235.378 126.276 219.482 127.18C118.281 132.979 12.4292 83.6608 -60.8656 8.91184C-134.242 -65.9169 -178.947 -162.878 -203.324 -263.323" stroke="url(#paint28_linear_1113_6279)" stroke-width="2.37175" stroke-miterlimit="10"/>
<path opacity="0.54" d="M1287.8 1047.2C1323.8 1002.14 1308.32 933.351 1268.48 892.199C1264.93 888.528 1261.21 885.043 1257.35 881.718C1217.98 847.988 1165.64 832.24 1113.93 821.6C1103.97 819.551 1093.99 817.663 1083.97 815.854C1036.97 807.235 989.148 799.255 945.373 779.863C931.229 773.611 917.823 766.27 905.156 757.864C819.276 700.858 773.066 598.178 742.78 499.913C740.591 492.784 738.43 485.602 736.296 478.446C704.723 372.441 670.661 267.899 609.322 188.176C585.219 156.84 560.624 123.801 520.46 106.75C472.637 86.3468 415.019 91.7203 364.952 103.372C330.835 111.299 298.196 121.806 264.845 128.909C249.169 132.234 233.328 134.787 217.076 136.064C113.659 144.071 4.71574 93.9282 -70.0017 17.3172C-144.801 -59.3737 -189.588 -158.995 -213.992 -261.808" stroke="url(#paint29_linear_1113_6279)" stroke-width="2.37175" stroke-miterlimit="10"/>
<path opacity="0.54" d="M1281.29 1061.41C1317.3 1016.43 1302.33 947.795 1262.99 906.27C1259.49 902.573 1255.79 899.035 1251.99 895.683C1213.03 861.554 1160.99 845.194 1109.45 833.969C1099.55 831.814 1089.56 829.819 1079.57 827.877C1032.71 818.78 985.021 810.347 941.411 790.742C927.321 784.411 913.942 777.043 901.302 768.61C815.614 711.285 769.815 608.631 740.322 510.181C738.188 503.025 736.081 495.843 734.029 488.687C703.469 382.549 671.186 277.714 612.637 196.395C588.972 163.543 564.759 128.828 523.939 110.899C475.295 89.4587 416.227 95.444 365.23 108.266C330.484 116.991 297.352 128.536 263.372 136.569C247.422 140.347 231.253 143.299 214.646 144.922C109.013 155.137 -3.02254 104.196 -79.1627 25.6961C-155.385 -52.8834 -200.254 -155.138 -224.685 -260.318" stroke="url(#paint30_linear_1113_6279)" stroke-width="2.37175" stroke-miterlimit="10"/>
<path opacity="0.54" d="M1274.75 1075.61C1310.78 1030.68 1296.28 962.24 1257.46 920.317C1253.99 916.566 1250.35 913.001 1246.57 909.623C1208 875.095 1156.29 858.15 1104.94 846.313C1095.06 844.052 1085.13 841.95 1075.17 839.902C1028.47 830.299 980.917 821.441 937.444 801.623C923.409 795.239 910.085 787.817 897.472 779.331C811.975 721.66 766.587 619.033 737.915 520.423C735.835 513.268 733.811 506.085 731.813 498.876C702.266 392.605 671.87 287.425 616.003 204.589C592.83 170.221 568.945 133.804 527.442 114.997C477.976 92.4924 417.431 99.116 365.531 113.108C330.183 122.631 296.532 135.214 261.95 144.178C245.699 148.381 229.256 151.759 212.293 153.728C104.444 166.177 -10.6828 114.385 -88.2456 34.0233C-165.89 -46.4183 -210.841 -151.333 -235.3 -258.881" stroke="url(#paint31_linear_1113_6279)" stroke-width="2.37175" stroke-miterlimit="10"/>
<path opacity="0.54" d="M1268.22 1089.84C1304.25 1045 1290.27 976.684 1251.91 934.388C1248.49 930.611 1244.91 927.02 1241.16 923.588C1202.99 888.661 1151.59 871.131 1100.4 858.708C1090.55 856.314 1080.64 854.107 1070.74 851.952C1024.2 841.843 976.761 832.533 933.452 812.529C919.471 806.065 906.175 798.617 893.617 790.078C808.312 732.088 763.333 629.487 735.482 530.691C733.457 523.509 731.487 516.326 729.572 509.118C701.037 402.713 672.556 297.187 619.343 212.808C596.69 176.897 573.079 138.831 530.919 119.146C480.633 95.5777 418.61 102.84 365.779 118.002C329.802 128.324 295.658 141.97 260.475 151.839C243.95 156.494 227.179 160.271 209.888 162.586C99.8225 177.243 -18.3958 124.653 -97.3813 42.4022C-176.449 -39.9281 -221.482 -147.476 -245.968 -257.392" stroke="url(#paint32_linear_1113_6279)" stroke-width="2.37175" stroke-miterlimit="10"/>
<path opacity="0.54" d="M1261.67 1104.05C1297.71 1059.25 1284.25 991.13 1246.38 948.461C1242.99 944.658 1239.46 941.013 1235.74 937.555C1197.98 902.255 1146.88 884.087 1095.85 871.079C1086.03 868.579 1076.18 866.264 1066.3 864.003C1019.93 853.389 972.599 843.653 929.454 823.437C915.528 816.919 902.259 809.418 889.728 800.826C804.615 742.516 760.047 639.943 733.016 540.96C731.046 533.778 729.158 526.569 727.298 519.36C699.775 412.823 673.319 306.924 622.65 221.056C600.544 183.575 577.207 143.86 534.39 123.324C483.283 98.7177 419.783 106.592 366.05 122.951C329.471 134.07 294.807 148.754 258.994 159.554C242.168 164.635 225.096 168.838 207.449 171.498C95.168 188.39 -26.1418 134.948 -106.55 50.8358C-187.04 -33.3565 -232.155 -143.565 -256.641 -255.848" stroke="url(#paint33_linear_1113_6279)" stroke-width="2.37175" stroke-miterlimit="10"/>
<path opacity="0.54" d="M1255.16 1118.25C1291.22 1073.54 1278.22 1005.57 1240.85 962.506C1237.51 958.649 1234.01 954.978 1230.35 951.493C1192.97 915.794 1142.2 897.041 1091.34 883.447C1081.57 880.841 1071.72 878.393 1061.9 876.052C1015.69 864.933 968.494 854.771 925.458 834.342C911.587 827.771 898.372 820.19 885.869 811.571C800.974 752.916 756.789 650.369 730.58 551.227C728.664 544.018 726.831 536.809 725.053 529.6C698.542 422.93 674.138 316.606 625.986 229.274C604.455 190.224 581.363 148.886 537.863 127.446C485.935 101.776 420.958 110.261 366.322 127.818C329.113 139.762 293.93 155.457 257.542 167.214C240.443 172.721 223.07 177.349 205.068 180.355C90.5429 199.455 -33.8312 145.215 -115.662 59.1874C-197.575 -26.867 -242.772 -139.735 -267.286 -254.386" stroke="url(#paint34_linear_1113_6279)" stroke-width="2.37175" stroke-miterlimit="10"/>
<path opacity="0.54" d="M1248.62 1132.46C1284.68 1087.8 1272.21 1020.02 1235.33 976.551C1232.04 972.667 1228.57 968.97 1224.96 965.432C1187.99 929.334 1137.52 909.969 1086.82 895.79C1077.08 893.077 1067.29 890.523 1057.46 888.049C1011.42 876.451 964.335 865.811 921.463 845.169C907.647 838.518 894.46 830.91 882.012 822.265C797.308 763.291 753.561 660.77 728.117 561.442C726.284 554.233 724.478 546.997 722.755 539.762C697.256 432.959 674.986 326.235 629.269 237.441C608.367 196.821 585.467 153.834 541.282 131.542C488.534 104.808 422.079 113.932 366.54 132.66C328.703 145.401 293.027 162.133 256.037 174.822C238.637 180.781 220.963 185.808 202.605 189.16C85.8643 210.468 -41.6013 155.403 -124.855 67.5136C-208.19 -20.4295 -253.497 -135.931 -278.01 -252.949" stroke="url(#paint35_linear_1113_6279)" stroke-width="2.37175" stroke-miterlimit="10"/>
<path opacity="0.54" d="M1242.08 1146.69C1278.17 1102.11 1266.18 1034.49 1229.79 990.623C1226.54 986.713 1223.12 982.962 1219.54 979.398C1182.96 942.928 1132.81 922.95 1082.3 908.16C1072.59 905.314 1062.82 902.68 1053.06 900.1C1007.17 887.997 960.199 876.931 917.492 856.075C903.73 849.372 890.598 841.711 878.177 833.012C793.665 773.718 750.328 671.198 725.705 571.71C723.927 564.475 722.203 557.239 720.534 550.004C696.075 443.067 675.966 335.945 632.63 245.688C612.357 203.498 589.621 158.889 544.807 135.692C491.238 107.921 423.306 117.657 366.837 137.581C328.398 151.121 292.202 168.891 254.583 182.51C236.909 188.894 218.907 194.348 200.221 198.045C81.2635 221.587 -49.2937 165.698 -133.97 75.9198C-218.728 -13.8853 -264.117 -132.074 -288.658 -251.433" stroke="url(#paint36_linear_1113_6279)" stroke-width="2.37175" stroke-miterlimit="10"/>
<path opacity="0.54" d="M1235.54 1160.9C1271.63 1116.37 1260.14 1048.91 1224.24 1004.7C1221.04 1000.76 1217.65 996.956 1214.12 993.365C1177.95 956.496 1128.1 935.907 1077.76 920.558C1068.08 917.605 1058.36 914.838 1048.63 912.152C1002.88 899.543 956.07 888.051 913.499 866.983C899.792 860.2 886.687 852.512 874.294 843.76C789.973 784.121 747.047 681.654 723.244 581.98C721.521 574.744 719.852 567.482 718.265 560.247C694.818 453.151 676.953 345.629 635.942 253.909C616.353 210.124 593.754 163.891 548.256 139.844C493.866 111.008 424.457 121.383 367.085 142.477C328.016 156.815 291.328 175.649 253.107 190.173C235.16 196.983 216.856 202.862 197.815 206.905C76.6415 232.655 -56.9799 175.941 -143.106 84.3007C-229.287 -7.39312 -274.758 -128.215 -299.326 -249.941" stroke="url(#paint37_linear_1113_6279)" stroke-width="2.37175" stroke-miterlimit="10"/>
<path opacity="0.54" d="M1229.03 1175.1C1265.15 1130.65 1254.15 1063.35 1218.75 1018.74C1215.57 1014.75 1212.23 1010.95 1208.76 1007.3C1173 970.035 1123.45 948.86 1073.28 932.899C1063.65 929.84 1053.94 926.967 1044.25 924.174C998.67 911.06 951.968 899.143 909.562 877.862C895.91 871.025 882.832 863.285 870.493 854.48C786.364 794.521 743.848 692.054 720.867 592.22C719.198 584.958 717.611 577.696 716.079 570.46C693.644 463.231 678.104 355.311 639.337 262.128C620.459 216.773 597.97 168.917 551.788 143.966C496.55 114.066 425.69 125.079 367.415 147.344C327.745 162.507 290.537 182.351 251.687 197.806C233.438 205.068 214.834 211.346 195.437 215.735C72.0475 243.693 -64.6654 186.182 -152.214 92.6523C-239.818 -0.903608 -285.371 -124.386 -309.939 -248.479" stroke="url(#paint38_linear_1113_6279)" stroke-width="2.37175" stroke-miterlimit="10"/>
<path opacity="0.54" d="M1222.49 1189.31C1258.61 1144.91 1248.13 1077.79 1213.19 1032.79C1210.07 1028.77 1206.79 1024.91 1203.32 1021.24C1167.94 983.573 1118.72 961.787 1068.71 945.268C1059.11 942.102 1049.45 939.096 1039.79 936.223C994.374 922.63 947.782 910.234 905.54 888.767C891.942 881.851 878.919 874.083 866.608 865.225C782.698 804.947 740.565 702.507 718.404 602.487C716.79 595.225 715.258 587.936 713.808 580.674C692.386 473.312 679.171 365.019 642.647 270.319C624.535 223.369 602.101 173.891 555.262 148.088C499.204 117.151 426.866 128.775 367.661 152.211C327.362 168.171 289.661 189.053 250.209 205.44C231.687 213.127 212.782 219.804 193.029 224.566C67.4237 254.758 -72.381 196.395 -161.353 101.004C-250.351 5.55931 -296.014 -120.556 -320.609 -247.018" stroke="url(#paint39_linear_1113_6279)" stroke-width="2.37175" stroke-miterlimit="10"/>
<path opacity="0.54" d="M1215.96 1203.54C1252.1 1159.22 1242.08 1092.27 1207.67 1046.89C1204.6 1042.84 1201.35 1038.93 1197.93 1035.23C1162.96 997.194 1114.04 974.796 1064.22 957.665C1054.65 954.393 1045.02 951.281 1035.39 948.275C990.136 934.177 943.68 921.355 901.574 899.675C888.032 892.706 875.036 884.885 862.752 875.974C779.033 815.35 737.311 712.962 715.971 612.756C714.411 605.467 712.961 598.179 711.566 590.917C691.156 483.422 680.35 374.757 645.959 278.567C628.614 230.047 606.207 178.92 558.711 152.239C501.832 120.238 428.017 132.501 367.91 157.133C327.008 173.892 288.787 195.811 248.734 213.129C229.911 221.269 210.705 228.344 190.596 233.452C62.7745 265.852 -80.1217 206.691 -170.516 109.411C-260.937 12.1045 -306.682 -116.671 -331.305 -245.5" stroke="url(#paint40_linear_1113_6279)" stroke-width="2.37175" stroke-miterlimit="10"/>
<path opacity="0.54" d="M1209.42 1217.74C1245.56 1173.48 1236.06 1106.71 1202.11 1060.93C1199.07 1056.83 1195.87 1052.92 1192.48 1049.15C1157.9 1010.71 1109.31 987.698 1059.65 969.982C1050.13 966.577 1040.53 963.385 1030.93 960.272C985.838 945.668 939.492 932.421 897.523 910.528C884.035 903.506 871.095 895.605 858.838 886.694C775.311 825.751 733.999 723.363 713.452 622.998C711.947 615.709 710.552 608.42 709.239 601.132C689.841 493.504 681.469 384.493 649.213 286.76C632.688 236.644 610.281 183.921 562.102 156.362C504.402 123.297 429.11 136.198 368.099 162.001C326.568 179.558 287.828 202.541 247.172 220.763C228.076 229.329 208.541 236.83 188.104 242.283C58.0667 276.918 -87.921 216.906 -179.765 117.737C-271.609 18.5687 -317.436 -112.867 -342.086 -244.063" stroke="url(#paint41_linear_1113_6279)" stroke-width="2.37175" stroke-miterlimit="10"/>
<path opacity="0.54" d="M1202.9 1231.95C1239.07 1187.76 1230.05 1121.13 1196.61 1074.97C1193.63 1070.85 1190.46 1066.89 1187.12 1063.08C1152.95 1024.25 1104.66 1000.65 1055.17 982.35C1045.67 978.839 1036.1 975.513 1026.55 972.321C981.625 957.212 935.388 943.512 893.584 921.433C880.151 914.331 867.237 906.404 855.035 897.439C771.699 836.177 730.798 733.816 711.072 633.264C709.649 625.949 708.309 618.66 707.05 611.345C688.665 503.584 682.755 394.254 652.606 294.979C636.902 243.293 614.495 188.921 565.659 160.484C507.138 126.382 430.368 139.895 368.455 166.868C326.322 185.223 287.062 209.244 245.804 228.397C226.434 237.388 206.599 245.315 185.806 251.114C53.5527 287.956 -95.5265 227.12 -188.793 126.089C-282.06 25.0316 -327.969 -109.038 -352.647 -242.602" stroke="url(#paint42_linear_1113_6279)" stroke-width="2.37175" stroke-miterlimit="10"/>
<path opacity="0.54" d="M1196.36 1246.15C1232.53 1202.02 1224.02 1135.57 1191.08 1089.02C1188.13 1084.87 1185.01 1080.85 1181.73 1077.02C1147.94 1037.81 1099.98 1013.61 1050.65 994.693C1041.18 991.075 1031.66 987.643 1022.14 984.318C977.382 968.703 931.282 954.578 889.614 932.287C876.236 925.131 863.349 917.15 851.175 908.133C768.031 846.551 727.567 744.191 708.634 643.479C707.266 636.164 705.98 628.848 704.804 621.533C687.431 513.639 684.038 404.016 655.941 303.145C641.112 249.89 618.623 193.895 569.131 164.58C509.789 129.414 431.542 143.539 368.698 171.736C325.936 190.915 286.184 215.947 244.297 236.031C224.626 245.474 204.49 253.8 183.341 259.945C48.8716 298.995 -103.299 237.361 -197.989 134.441C-292.678 31.522 -338.669 -105.207 -363.374 -241.139" stroke="url(#paint43_linear_1113_6279)" stroke-width="2.37175" stroke-miterlimit="10"/>
<path opacity="0.54" d="M1189.83 1260.38C1226.02 1216.33 1218.01 1150.04 1185.53 1103.12C1182.63 1098.94 1179.54 1094.9 1176.28 1091.01C1142.91 1051.41 1095.25 1026.59 1046.08 1007.12C1036.64 1003.39 1027.15 999.827 1017.68 996.422C973.062 980.328 927.099 965.751 885.595 943.246C872.271 936.011 859.44 928.004 847.293 918.933C764.368 857.006 724.287 754.698 706.175 653.8C704.862 646.458 703.658 639.143 702.536 631.828C686.175 523.801 685.327 413.912 659.254 311.445C645.301 256.62 622.757 198.976 572.581 168.784C512.418 132.553 432.694 147.316 368.948 176.684C325.556 196.661 285.311 222.73 242.823 243.745C222.878 253.614 202.413 262.366 180.937 268.857C44.2509 310.141 -111.011 247.656 -207.124 142.874C-303.236 38.066 -349.308 -101.297 -374.014 -239.596" stroke="url(#paint44_linear_1113_6279)" stroke-width="2.37175" stroke-miterlimit="10"/>
<path opacity="0.54" d="M1183.32 1274.59C1219.51 1230.59 1211.99 1164.49 1180.03 1117.16C1177.19 1112.94 1174.12 1108.87 1170.92 1104.95C1137.95 1064.95 1090.6 1039.54 1041.62 1019.46C1032.24 1015.6 1022.77 1011.96 1013.31 1008.42C968.849 991.821 922.995 976.791 881.655 954.1C868.386 946.812 855.582 938.752 843.49 929.627C760.756 867.381 721.085 765.073 703.795 664.016C702.536 656.674 701.387 649.332 700.347 642.017C684.999 533.857 686.723 423.729 662.647 319.612C649.624 263.245 626.97 203.951 576.137 172.881C515.154 135.613 433.953 150.988 369.303 181.526C325.31 202.302 284.545 229.408 241.455 251.381C221.209 261.675 200.471 270.853 178.638 277.689C39.7366 321.182 -118.617 257.898 -216.152 151.228C-313.687 44.5575 -359.842 -97.4655 -384.574 -238.132" stroke="url(#paint45_linear_1113_6279)" stroke-width="2.37175" stroke-miterlimit="10"/>
<path opacity="0.54" d="M1176.78 1288.8C1212.97 1244.88 1205.97 1178.93 1174.48 1131.21C1171.66 1126.95 1168.68 1122.83 1165.48 1118.89C1132.89 1078.49 1085.86 1052.47 1037.05 1031.83C1027.7 1027.87 1018.26 1024.11 1008.85 1020.47C964.553 1003.37 918.836 987.911 877.633 965.007C864.391 957.665 851.669 949.552 839.577 940.401C757.035 877.836 717.774 775.555 701.277 674.311C700.073 666.943 699.006 659.601 698.021 652.259C683.685 543.939 687.98 433.625 665.902 327.859C653.809 269.949 631.046 208.979 579.529 177.031C517.725 138.699 435.046 154.713 369.494 186.421C324.872 207.995 283.614 236.165 239.895 259.042C219.375 269.789 198.309 279.365 176.121 286.548C35.0029 332.248 -126.443 268.14 -225.4 159.608C-324.358 51.0487 -370.622 -93.6078 -395.354 -236.642" stroke="url(#paint46_linear_1113_6279)" stroke-width="2.37175" stroke-miterlimit="10"/>
<path opacity="0.54" d="M1170.24 1303C1209.69 1255.22 1198.44 1181.46 1160.09 1132.83C1121.73 1084.23 1062.74 1055.74 1004.44 1032.49C946.138 1009.24 885.264 988.948 835.717 951.121C747.402 883.661 709.099 770.899 695.803 662.473C682.479 554.021 689.401 443.52 669.265 336.078C658.129 276.625 635.203 214.006 583.029 181.18C520.404 141.784 436.248 158.437 369.765 191.342C303.283 224.247 244.27 271.837 173.738 295.432C30.4043 343.367 -134.133 278.434 -234.513 168.013C-334.893 57.5919 -381.239 -89.7247 -405.999 -235.126" stroke="url(#paint47_linear_1113_6279)" stroke-width="2.37175" stroke-miterlimit="10"/>
</g>
<defs>
<linearGradient id="paint0_linear_1113_6279" x1="1561.81" y1="-299.32" x2="132.226" y2="1005.25" gradientUnits="userSpaceOnUse">
<stop stop-color="#7ED4EF"/>
<stop offset="0.2294" stop-color="#66BFE6"/>
<stop offset="0.711" stop-color="#298BD0"/>
<stop offset="1" stop-color="#0169C2"/>
</linearGradient>
<linearGradient id="paint1_linear_1113_6279" x1="1572.12" y1="-298.237" x2="133.94" y2="1014.18" gradientUnits="userSpaceOnUse">
<stop stop-color="#7ED4EF"/>
<stop offset="0.2294" stop-color="#66BFE6"/>
<stop offset="0.711" stop-color="#298BD0"/>
<stop offset="1" stop-color="#0169C2"/>
</linearGradient>
<linearGradient id="paint2_linear_1113_6279" x1="1582.29" y1="-297.306" x2="135.504" y2="1022.96" gradientUnits="userSpaceOnUse">
<stop stop-color="#7ED4EF"/>
<stop offset="0.2294" stop-color="#66BFE6"/>
<stop offset="0.711" stop-color="#298BD0"/>
<stop offset="1" stop-color="#0169C2"/>
</linearGradient>
<linearGradient id="paint3_linear_1113_6279" x1="1592.36" y1="-296.481" x2="136.982" y2="1031.63" gradientUnits="userSpaceOnUse">
<stop stop-color="#7ED4EF"/>
<stop offset="0.2294" stop-color="#66BFE6"/>
<stop offset="0.711" stop-color="#298BD0"/>
<stop offset="1" stop-color="#0169C2"/>
</linearGradient>
<linearGradient id="paint4_linear_1113_6279" x1="1602.37" y1="-295.734" x2="138.392" y2="1040.22" gradientUnits="userSpaceOnUse">
<stop stop-color="#7ED4EF"/>
<stop offset="0.2294" stop-color="#66BFE6"/>
<stop offset="0.711" stop-color="#298BD0"/>
<stop offset="1" stop-color="#0169C2"/>
</linearGradient>
<linearGradient id="paint5_linear_1113_6279" x1="1612.32" y1="-295.044" x2="139.743" y2="1048.76" gradientUnits="userSpaceOnUse">
<stop stop-color="#7ED4EF"/>
<stop offset="0.2294" stop-color="#66BFE6"/>
<stop offset="0.711" stop-color="#298BD0"/>
<stop offset="1" stop-color="#0169C2"/>
</linearGradient>
<linearGradient id="paint6_linear_1113_6279" x1="1622.22" y1="-294.398" x2="141.051" y2="1057.25" gradientUnits="userSpaceOnUse">
<stop stop-color="#7ED4EF"/>
<stop offset="0.2294" stop-color="#66BFE6"/>
<stop offset="0.711" stop-color="#298BD0"/>
<stop offset="1" stop-color="#0169C2"/>
</linearGradient>
<linearGradient id="paint7_linear_1113_6279" x1="1632.1" y1="-293.785" x2="142.331" y2="1065.71" gradientUnits="userSpaceOnUse">
<stop stop-color="#7ED4EF"/>
<stop offset="0.2294" stop-color="#66BFE6"/>
<stop offset="0.711" stop-color="#298BD0"/>
<stop offset="1" stop-color="#0169C2"/>
</linearGradient>
<linearGradient id="paint8_linear_1113_6279" x1="1641.95" y1="-293.202" x2="143.584" y2="1074.14" gradientUnits="userSpaceOnUse">
<stop stop-color="#7ED4EF"/>
<stop offset="0.2294" stop-color="#66BFE6"/>
<stop offset="0.711" stop-color="#298BD0"/>
<stop offset="1" stop-color="#0169C2"/>
</linearGradient>
<linearGradient id="paint9_linear_1113_6279" x1="1651.79" y1="-292.639" x2="144.822" y2="1082.55" gradientUnits="userSpaceOnUse">
<stop stop-color="#7ED4EF"/>
<stop offset="0.2294" stop-color="#66BFE6"/>
<stop offset="0.711" stop-color="#298BD0"/>
<stop offset="1" stop-color="#0169C2"/>
</linearGradient>
<linearGradient id="paint10_linear_1113_6279" x1="1661.6" y1="-292.097" x2="146.041" y2="1090.93" gradientUnits="userSpaceOnUse">
<stop stop-color="#7ED4EF"/>
<stop offset="0.2294" stop-color="#66BFE6"/>
<stop offset="0.711" stop-color="#298BD0"/>
<stop offset="1" stop-color="#0169C2"/>
</linearGradient>
<linearGradient id="paint11_linear_1113_6279" x1="1671.4" y1="-291.57" x2="147.244" y2="1099.31" gradientUnits="userSpaceOnUse">
<stop stop-color="#7ED4EF"/>
<stop offset="0.2294" stop-color="#66BFE6"/>
<stop offset="0.711" stop-color="#298BD0"/>
<stop offset="1" stop-color="#0169C2"/>
</linearGradient>
<linearGradient id="paint12_linear_1113_6279" x1="1681.2" y1="-291.055" x2="148.44" y2="1107.67" gradientUnits="userSpaceOnUse">
<stop stop-color="#7ED4EF"/>
<stop offset="0.2294" stop-color="#66BFE6"/>
<stop offset="0.711" stop-color="#298BD0"/>
<stop offset="1" stop-color="#0169C2"/>
</linearGradient>
<linearGradient id="paint13_linear_1113_6279" x1="1690.97" y1="-290.55" x2="149.62" y2="1116.02" gradientUnits="userSpaceOnUse">
<stop stop-color="#7ED4EF"/>
<stop offset="0.2294" stop-color="#66BFE6"/>
<stop offset="0.711" stop-color="#298BD0"/>
<stop offset="1" stop-color="#0169C2"/>
</linearGradient>
<linearGradient id="paint14_linear_1113_6279" x1="1700.74" y1="-290.057" x2="150.789" y2="1124.35" gradientUnits="userSpaceOnUse">
<stop stop-color="#7ED4EF"/>
<stop offset="0.2294" stop-color="#66BFE6"/>
<stop offset="0.711" stop-color="#298BD0"/>
<stop offset="1" stop-color="#0169C2"/>
</linearGradient>
<linearGradient id="paint15_linear_1113_6279" x1="1710.5" y1="-289.572" x2="151.955" y2="1132.68" gradientUnits="userSpaceOnUse">
<stop stop-color="#7ED4EF"/>
<stop offset="0.2294" stop-color="#66BFE6"/>
<stop offset="0.711" stop-color="#298BD0"/>
<stop offset="1" stop-color="#0169C2"/>
</linearGradient>
<linearGradient id="paint16_linear_1113_6279" x1="1720.26" y1="-289.092" x2="153.111" y2="1141.01" gradientUnits="userSpaceOnUse">
<stop stop-color="#7ED4EF"/>
<stop offset="0.2294" stop-color="#66BFE6"/>
<stop offset="0.711" stop-color="#298BD0"/>
<stop offset="1" stop-color="#0169C2"/>
</linearGradient>
<linearGradient id="paint17_linear_1113_6279" x1="1730.01" y1="-288.619" x2="154.266" y2="1149.33" gradientUnits="userSpaceOnUse">
<stop stop-color="#7ED4EF"/>
<stop offset="0.2294" stop-color="#66BFE6"/>
<stop offset="0.711" stop-color="#298BD0"/>
<stop offset="1" stop-color="#0169C2"/>
</linearGradient>
<linearGradient id="paint18_linear_1113_6279" x1="1739.75" y1="-288.152" x2="155.414" y2="1157.64" gradientUnits="userSpaceOnUse">
<stop stop-color="#7ED4EF"/>
<stop offset="0.2294" stop-color="#66BFE6"/>
<stop offset="0.711" stop-color="#298BD0"/>
<stop offset="1" stop-color="#0169C2"/>
</linearGradient>
<linearGradient id="paint19_linear_1113_6279" x1="1749.49" y1="-287.69" x2="156.56" y2="1165.94" gradientUnits="userSpaceOnUse">
<stop stop-color="#7ED4EF"/>
<stop offset="0.2294" stop-color="#66BFE6"/>
<stop offset="0.711" stop-color="#298BD0"/>
<stop offset="1" stop-color="#0169C2"/>
</linearGradient>
<linearGradient id="paint20_linear_1113_6279" x1="1759.23" y1="-287.232" x2="157.696" y2="1174.25" gradientUnits="userSpaceOnUse">
<stop stop-color="#7ED4EF"/>
<stop offset="0.2294" stop-color="#66BFE6"/>
<stop offset="0.711" stop-color="#298BD0"/>
<stop offset="1" stop-color="#0169C2"/>
</linearGradient>
<linearGradient id="paint21_linear_1113_6279" x1="1768.96" y1="-286.777" x2="158.832" y2="1182.55" gradientUnits="userSpaceOnUse">
<stop stop-color="#7ED4EF"/>
<stop offset="0.2294" stop-color="#66BFE6"/>
<stop offset="0.711" stop-color="#298BD0"/>
<stop offset="1" stop-color="#0169C2"/>
</linearGradient>
<linearGradient id="paint22_linear_1113_6279" x1="1778.69" y1="-286.326" x2="159.965" y2="1190.84" gradientUnits="userSpaceOnUse">
<stop stop-color="#7ED4EF"/>
<stop offset="0.2294" stop-color="#66BFE6"/>
<stop offset="0.711" stop-color="#298BD0"/>
<stop offset="1" stop-color="#0169C2"/>
</linearGradient>
<linearGradient id="paint23_linear_1113_6279" x1="1788.41" y1="-285.879" x2="161.097" y2="1199.13" gradientUnits="userSpaceOnUse">
<stop stop-color="#7ED4EF"/>
<stop offset="0.2294" stop-color="#66BFE6"/>
<stop offset="0.711" stop-color="#298BD0"/>
<stop offset="1" stop-color="#0169C2"/>
</linearGradient>
<linearGradient id="paint24_linear_1113_6279" x1="-134.1" y1="-299.32" x2="1295.48" y2="1005.25" gradientUnits="userSpaceOnUse">
<stop stop-color="#7ED4EF"/>
<stop offset="0.2294" stop-color="#66BFE6"/>
<stop offset="0.711" stop-color="#298BD0"/>
<stop offset="1" stop-color="#0169C2"/>
</linearGradient>
<linearGradient id="paint25_linear_1113_6279" x1="-144.412" y1="-298.237" x2="1293.77" y2="1014.18" gradientUnits="userSpaceOnUse">
<stop stop-color="#7ED4EF"/>
<stop offset="0.2294" stop-color="#66BFE6"/>
<stop offset="0.711" stop-color="#298BD0"/>
<stop offset="1" stop-color="#0169C2"/>
</linearGradient>
<linearGradient id="paint26_linear_1113_6279" x1="-154.575" y1="-297.306" x2="1292.21" y2="1022.96" gradientUnits="userSpaceOnUse">
<stop stop-color="#7ED4EF"/>
<stop offset="0.2294" stop-color="#66BFE6"/>
<stop offset="0.711" stop-color="#298BD0"/>
<stop offset="1" stop-color="#0169C2"/>
</linearGradient>
<linearGradient id="paint27_linear_1113_6279" x1="-164.652" y1="-296.481" x2="1290.73" y2="1031.63" gradientUnits="userSpaceOnUse">
<stop stop-color="#7ED4EF"/>
<stop offset="0.2294" stop-color="#66BFE6"/>
<stop offset="0.711" stop-color="#298BD0"/>
<stop offset="1" stop-color="#0169C2"/>
</linearGradient>
<linearGradient id="paint28_linear_1113_6279" x1="-174.659" y1="-295.734" x2="1289.32" y2="1040.22" gradientUnits="userSpaceOnUse">
<stop stop-color="#7ED4EF"/>
<stop offset="0.2294" stop-color="#66BFE6"/>
<stop offset="0.711" stop-color="#298BD0"/>
<stop offset="1" stop-color="#0169C2"/>
</linearGradient>
<linearGradient id="paint29_linear_1113_6279" x1="-184.608" y1="-295.044" x2="1287.97" y2="1048.76" gradientUnits="userSpaceOnUse">
<stop stop-color="#7ED4EF"/>
<stop offset="0.2294" stop-color="#66BFE6"/>
<stop offset="0.711" stop-color="#298BD0"/>
<stop offset="1" stop-color="#0169C2"/>
</linearGradient>
<linearGradient id="paint30_linear_1113_6279" x1="-194.514" y1="-294.398" x2="1286.66" y2="1057.25" gradientUnits="userSpaceOnUse">
<stop stop-color="#7ED4EF"/>
<stop offset="0.2294" stop-color="#66BFE6"/>
<stop offset="0.711" stop-color="#298BD0"/>
<stop offset="1" stop-color="#0169C2"/>
</linearGradient>
<linearGradient id="paint31_linear_1113_6279" x1="-204.391" y1="-293.785" x2="1285.38" y2="1065.71" gradientUnits="userSpaceOnUse">
<stop stop-color="#7ED4EF"/>
<stop offset="0.2294" stop-color="#66BFE6"/>
<stop offset="0.711" stop-color="#298BD0"/>
<stop offset="1" stop-color="#0169C2"/>
</linearGradient>
<linearGradient id="paint32_linear_1113_6279" x1="-214.242" y1="-293.202" x2="1284.13" y2="1074.14" gradientUnits="userSpaceOnUse">
<stop stop-color="#7ED4EF"/>
<stop offset="0.2294" stop-color="#66BFE6"/>
<stop offset="0.711" stop-color="#298BD0"/>
<stop offset="1" stop-color="#0169C2"/>
</linearGradient>
<linearGradient id="paint33_linear_1113_6279" x1="-224.077" y1="-292.639" x2="1282.89" y2="1082.55" gradientUnits="userSpaceOnUse">
<stop stop-color="#7ED4EF"/>
<stop offset="0.2294" stop-color="#66BFE6"/>
<stop offset="0.711" stop-color="#298BD0"/>
<stop offset="1" stop-color="#0169C2"/>
</linearGradient>
<linearGradient id="paint34_linear_1113_6279" x1="-233.893" y1="-292.097" x2="1281.67" y2="1090.93" gradientUnits="userSpaceOnUse">
<stop stop-color="#7ED4EF"/>
<stop offset="0.2294" stop-color="#66BFE6"/>
<stop offset="0.711" stop-color="#298BD0"/>
<stop offset="1" stop-color="#0169C2"/>
</linearGradient>
<linearGradient id="paint35_linear_1113_6279" x1="-243.694" y1="-291.57" x2="1280.47" y2="1099.31" gradientUnits="userSpaceOnUse">
<stop stop-color="#7ED4EF"/>
<stop offset="0.2294" stop-color="#66BFE6"/>
<stop offset="0.711" stop-color="#298BD0"/>
<stop offset="1" stop-color="#0169C2"/>
</linearGradient>
<linearGradient id="paint36_linear_1113_6279" x1="-253.486" y1="-291.055" x2="1279.27" y2="1107.67" gradientUnits="userSpaceOnUse">
<stop stop-color="#7ED4EF"/>
<stop offset="0.2294" stop-color="#66BFE6"/>
<stop offset="0.711" stop-color="#298BD0"/>
<stop offset="1" stop-color="#0169C2"/>
</linearGradient>
<linearGradient id="paint37_linear_1113_6279" x1="-263.263" y1="-290.55" x2="1278.09" y2="1116.02" gradientUnits="userSpaceOnUse">
<stop stop-color="#7ED4EF"/>
<stop offset="0.2294" stop-color="#66BFE6"/>
<stop offset="0.711" stop-color="#298BD0"/>
<stop offset="1" stop-color="#0169C2"/>
</linearGradient>
<linearGradient id="paint38_linear_1113_6279" x1="-273.029" y1="-290.057" x2="1276.92" y2="1124.35" gradientUnits="userSpaceOnUse">
<stop stop-color="#7ED4EF"/>
<stop offset="0.2294" stop-color="#66BFE6"/>
<stop offset="0.711" stop-color="#298BD0"/>
<stop offset="1" stop-color="#0169C2"/>
</linearGradient>
<linearGradient id="paint39_linear_1113_6279" x1="-282.791" y1="-289.572" x2="1275.76" y2="1132.68" gradientUnits="userSpaceOnUse">
<stop stop-color="#7ED4EF"/>
<stop offset="0.2294" stop-color="#66BFE6"/>
<stop offset="0.711" stop-color="#298BD0"/>
<stop offset="1" stop-color="#0169C2"/>
</linearGradient>
<linearGradient id="paint40_linear_1113_6279" x1="-292.544" y1="-289.092" x2="1274.6" y2="1141.01" gradientUnits="userSpaceOnUse">
<stop stop-color="#7ED4EF"/>
<stop offset="0.2294" stop-color="#66BFE6"/>
<stop offset="0.711" stop-color="#298BD0"/>
<stop offset="1" stop-color="#0169C2"/>
</linearGradient>
<linearGradient id="paint41_linear_1113_6279" x1="-302.296" y1="-288.619" x2="1273.44" y2="1149.33" gradientUnits="userSpaceOnUse">
<stop stop-color="#7ED4EF"/>
<stop offset="0.2294" stop-color="#66BFE6"/>
<stop offset="0.711" stop-color="#298BD0"/>
<stop offset="1" stop-color="#0169C2"/>
</linearGradient>
<linearGradient id="paint42_linear_1113_6279" x1="-312.04" y1="-288.152" x2="1272.3" y2="1157.64" gradientUnits="userSpaceOnUse">
<stop stop-color="#7ED4EF"/>
<stop offset="0.2294" stop-color="#66BFE6"/>
<stop offset="0.711" stop-color="#298BD0"/>
<stop offset="1" stop-color="#0169C2"/>
</linearGradient>
<linearGradient id="paint43_linear_1113_6279" x1="-321.782" y1="-287.69" x2="1271.15" y2="1165.94" gradientUnits="userSpaceOnUse">
<stop stop-color="#7ED4EF"/>
<stop offset="0.2294" stop-color="#66BFE6"/>
<stop offset="0.711" stop-color="#298BD0"/>
<stop offset="1" stop-color="#0169C2"/>
</linearGradient>
<linearGradient id="paint44_linear_1113_6279" x1="-331.514" y1="-287.232" x2="1270.02" y2="1174.25" gradientUnits="userSpaceOnUse">
<stop stop-color="#7ED4EF"/>
<stop offset="0.2294" stop-color="#66BFE6"/>
<stop offset="0.711" stop-color="#298BD0"/>
<stop offset="1" stop-color="#0169C2"/>
</linearGradient>
<linearGradient id="paint45_linear_1113_6279" x1="-341.247" y1="-286.777" x2="1268.88" y2="1182.55" gradientUnits="userSpaceOnUse">
<stop stop-color="#7ED4EF"/>
<stop offset="0.2294" stop-color="#66BFE6"/>
<stop offset="0.711" stop-color="#298BD0"/>
<stop offset="1" stop-color="#0169C2"/>
</linearGradient>
<linearGradient id="paint46_linear_1113_6279" x1="-350.975" y1="-286.326" x2="1267.75" y2="1190.84" gradientUnits="userSpaceOnUse">
<stop stop-color="#7ED4EF"/>
<stop offset="0.2294" stop-color="#66BFE6"/>
<stop offset="0.711" stop-color="#298BD0"/>
<stop offset="1" stop-color="#0169C2"/>
</linearGradient>
<linearGradient id="paint47_linear_1113_6279" x1="-360.703" y1="-285.879" x2="1266.61" y2="1199.13" gradientUnits="userSpaceOnUse">
<stop stop-color="#7ED4EF"/>
<stop offset="0.2294" stop-color="#66BFE6"/>
<stop offset="0.711" stop-color="#298BD0"/>
<stop offset="1" stop-color="#0169C2"/>
</linearGradient>
<clipPath id="clip0_1113_6279">
<rect width="1440" height="750" fill="white"/>
</clipPath>
</defs>
</svg>
